<?xml version="1.0" standalone="no"?>
<!DOCTYPE svg PUBLIC "-//W3C//DTD SVG 20010904//EN"
 "http://www.w3.org/TR/2001/REC-SVG-20010904/DTD/svg10.dtd">
<svg version="1.0" xmlns="http://www.w3.org/2000/svg"
 width="1024.000000pt" height="1024.000000pt" viewBox="0 0 1024.000000 1024.000000"
 preserveAspectRatio="xMidYMid meet">
<metadata>
Created by potrace 1.16, written by Peter Selinger 2001-2019
</metadata>
<g transform="translate(0.000000,1024.000000) scale(0.100000,-0.100000)"
fill="#0052FF" stroke="none">
<path d="M5283 7562 c-17 -3 -30 -27 -71 -135 -28 -73 -126 -328 -217 -567
-92 -239 -186 -487 -210 -550 -24 -63 -46 -123 -50 -132 -7 -17 3 -18 117 -18
l124 0 57 148 c30 81 96 253 145 382 50 129 138 361 197 515 59 154 113 297
120 317 l14 37 -102 3 c-56 2 -112 2 -124 0z"/>
<path d="M2961 7403 c0 -5 31 -73 68 -153 l68 -145 381 -3 382 -2 0 -245 0
-245 -260 0 -260 0 0 -150 0 -150 260 0 260 0 0 -960 0 -960 155 0 155 0 0
960 0 960 223 0 222 0 57 148 56 147 -279 3 -279 2 0 245 0 245 373 0 374 0
60 155 61 155 -1039 0 c-572 0 -1039 -3 -1038 -7z"/>
<path d="M5566 7265 c-31 -80 -56 -150 -56 -155 0 -6 105 -10 280 -10 l280 0
0 -245 0 -245 -377 0 -376 1 -57 -148 -57 -148 433 -3 434 -2 0 -958 c0 -527
2 -961 4 -963 2 -2 72 -3 155 -1 l151 3 0 960 0 959 265 0 265 0 0 150 0 150
-265 0 -265 0 0 245 0 245 382 2 382 3 67 145 c38 80 68 148 69 153 0 4 -373
7 -829 7 l-828 0 -57 -145z"/>
<path d="M3385 5848 c-104 -61 -275 -160 -380 -221 -104 -60 -279 -161 -387
-224 l-198 -115 0 -108 c0 -74 4 -111 13 -118 6 -5 93 -57 192 -114 209 -122
860 -499 923 -535 l42 -24 0 158 0 159 -222 128 c-123 71 -305 176 -405 233
-101 58 -183 108 -183 112 1 3 56 37 123 75 67 38 230 132 362 209 132 76 259
150 283 163 l42 25 0 154 c0 85 -3 155 -7 155 -5 -1 -93 -51 -198 -112z"/>
<path d="M6650 5806 l0 -154 298 -173 c163 -95 345 -200 404 -233 59 -34 108
-64 108 -68 0 -3 -26 -21 -57 -39 -32 -18 -166 -95 -298 -172 -132 -76 -288
-167 -347 -201 l-108 -61 0 -158 0 -158 58 32 c31 18 147 85 257 149 282 164
483 280 683 395 l172 100 0 111 0 112 -192 113 c-520 303 -965 559 -972 559
-3 0 -6 -69 -6 -154z"/>
<path d="M4380 3940 c-100 -25 -161 -52 -236 -105 -123 -88 -214 -221 -250
-364 -24 -98 -16 -274 18 -368 67 -189 220 -333 423 -400 71 -24 96 -27 225
-27 159 -1 232 15 351 75 157 79 283 240 324 411 19 83 19 234 -1 312 -61 240
-267 429 -518 475 -91 17 -250 12 -336 -9z m330 -244 c102 -36 205 -147 237
-255 25 -87 14 -221 -25 -305 -37 -79 -101 -144 -180 -183 -53 -26 -66 -28
-177 -28 -112 0 -124 2 -178 28 -117 58 -200 175 -216 303 -25 213 88 395 279
449 67 18 194 14 260 -9z"/>
<path d="M6955 3944 c-134 -28 -287 -118 -367 -216 -49 -60 -103 -160 -124
-233 -13 -43 -18 -93 -18 -180 0 -105 3 -130 28 -200 94 -271 351 -445 659
-445 103 0 183 14 267 47 194 77 338 232 396 428 24 81 25 247 1 335 -64 237
-247 409 -494 464 -89 20 -252 20 -348 0z m280 -238 c157 -41 257 -153 286
-319 33 -180 -58 -360 -219 -435 -51 -24 -68 -27 -172 -27 -104 0 -121 3 -172
27 -246 115 -306 454 -115 651 98 100 252 141 392 103z"/>
<path d="M2430 3422 c0 -285 -3 -567 -7 -625 l-6 -107 339 0 c378 1 441 7 568
60 257 107 405 369 367 650 -34 251 -179 424 -426 507 l-80 27 -377 4 -378 3
0 -519z m762 246 c155 -72 233 -228 208 -412 -14 -95 -49 -164 -115 -225 -92
-84 -134 -95 -372 -99 l-203 -3 0 386 0 386 213 -3 c205 -3 214 -4 269 -30z"/>
<path d="M5470 3825 l0 -115 225 0 225 0 0 -292 c0 -383 -7 -425 -84 -482 -22
-17 -42 -21 -94 -20 -80 0 -151 34 -209 97 -34 38 -36 39 -53 21 -48 -53 -140
-166 -140 -173 0 -5 21 -31 47 -57 94 -93 246 -142 413 -131 196 12 312 91
373 254 21 56 22 72 25 536 l3 477 -365 0 -366 0 0 -115z"/>
</g>
</svg>
