<?xml version="1.0" standalone="no"?>
<!DOCTYPE svg PUBLIC "-//W3C//DTD SVG 20010904//EN"
 "http://www.w3.org/TR/2001/REC-SVG-20010904/DTD/svg10.dtd">
<svg version="1.0" xmlns="http://www.w3.org/2000/svg"
 width="1024.000000pt" height="1024.000000pt" viewBox="0 0 1024.000000 1024.000000"
 preserveAspectRatio="xMidYMid meet">
<metadata>
Created by potrace 1.16, written by Peter Selinger 2001-2019
</metadata>
<g transform="translate(0.000000,1024.000000) scale(0.100000,-0.100000)"
fill="#0052FF" stroke="none">
<path d="M0 5120 l0 -5120 5120 0 5120 0 0 5120 0 5120 -5120 0 -5120 0 0
-5120z m5495 2402 c-7 -20 -61 -163 -120 -317 -59 -154 -147 -386 -197 -515
-49 -129 -115 -301 -145 -382 l-57 -148 -124 0 c-114 0 -124 1 -117 18 4 9 26
69 50 132 24 63 118 311 210 550 91 239 189 494 217 567 57 151 41 140 195
135 l102 -3 -14 -37z m-518 -267 l-60 -155 -374 0 -373 0 0 -245 0 -245 279
-2 279 -3 -56 -147 -57 -148 -222 0 -223 0 0 -960 0 -960 -155 0 -155 0 0 960
0 960 -260 0 -260 0 0 150 0 150 260 0 260 0 0 245 0 245 -382 2 -381 3 -68
145 c-37 80 -68 148 -68 153 -1 4 466 7 1038 7 l1039 0 -61 -155z m2303 148
c-1 -5 -31 -73 -69 -153 l-67 -145 -382 -3 -382 -2 0 -245 0 -245 265 0 265 0
0 -150 0 -150 -265 0 -265 0 0 -959 0 -960 -151 -3 c-83 -2 -153 -1 -155 1 -2
2 -4 436 -4 963 l0 958 -434 2 -433 3 57 148 57 148 376 -1 377 0 0 245 0 245
-280 0 c-175 0 -280 4 -280 10 0 5 25 75 56 155 l57 145 828 0 c456 0 829 -3
829 -7z m-3690 -1598 l0 -154 -42 -25 c-24 -13 -151 -87 -283 -163 -132 -77
-295 -171 -362 -209 -67 -38 -122 -72 -123 -75 0 -4 82 -54 183 -112 100 -57
282 -162 405 -233 l222 -128 0 -159 0 -158 -42 24 c-63 36 -714 413 -923 535
-99 57 -186 109 -192 114 -9 7 -13 44 -13 118 l0 108 198 115 c108 63 283 164
387 224 105 61 276 160 380 221 105 61 193 111 198 112 4 0 7 -70 7 -155z
m3308 19 c290 -168 478 -277 730 -423 l192 -113 0 -112 0 -111 -172 -100
c-200 -115 -401 -231 -683 -395 -110 -64 -226 -131 -257 -149 l-58 -32 0 158
0 158 108 61 c59 34 215 125 347 201 132 77 266 154 298 172 31 18 57 36 57
39 0 4 -49 34 -108 68 -59 33 -241 138 -404 233 l-298 173 0 154 c0 85 3 154
6 154 3 0 112 -61 242 -136z m-2182 -1875 c198 -36 384 -172 467 -342 49 -99
67 -178 67 -288 -1 -301 -172 -527 -470 -621 -65 -20 -95 -23 -220 -22 -129 0
-154 3 -225 27 -203 67 -356 211 -423 400 -34 94 -42 270 -18 368 46 184 191
356 362 429 125 54 319 75 460 49z m2587 -5 c247 -55 430 -227 494 -464 24
-88 23 -254 -1 -335 -121 -405 -593 -595 -993 -399 -158 77 -272 205 -329 369
-25 70 -28 95 -28 200 0 87 5 137 18 180 21 73 75 173 124 233 80 98 233 188
367 216 96 20 259 20 348 0z m-4038 -37 c153 -51 272 -142 344 -262 128 -212
114 -507 -32 -700 -65 -86 -151 -152 -253 -195 -127 -53 -190 -59 -568 -60
l-339 0 6 107 c4 58 7 340 7 625 l0 519 378 -3 377 -4 80 -27z m2933 -444 c-3
-464 -4 -480 -25 -536 -61 -163 -177 -242 -373 -254 -167 -11 -319 38 -413
131 -26 26 -47 52 -47 57 0 7 92 120 140 173 17 18 19 17 53 -21 58 -63 129
-97 209 -97 52 -1 72 3 94 20 77 57 84 99 84 482 l0 292 -225 0 -225 0 0 115
0 115 366 0 365 0 -3 -477z"/>
<path d="M4450 3705 c-191 -54 -304 -236 -279 -449 16 -128 99 -245 216 -303
54 -26 66 -28 178 -28 111 0 124 2 177 28 79 39 143 104 180 183 39 84 50 218
25 305 -32 108 -135 219 -237 255 -66 23 -193 27 -260 9z"/>
<path d="M7027 3709 c-62 -15 -136 -58 -184 -106 -191 -197 -131 -536 115
-651 51 -24 68 -27 172 -27 104 0 121 3 172 27 161 75 252 255 219 435 -29
166 -129 278 -286 319 -56 15 -151 17 -208 3z"/>
<path d="M2710 3315 l0 -386 203 3 c238 4 280 15 372 99 66 61 101 130 115
225 25 184 -53 340 -208 412 -55 26 -64 27 -269 30 l-213 3 0 -386z"/>
</g>
</svg>
