<?xml version="1.0" standalone="no"?>
<!DOCTYPE svg PUBLIC "-//W3C//DTD SVG 20010904//EN"
 "http://www.w3.org/TR/2001/REC-SVG-20010904/DTD/svg10.dtd">
<svg version="1.0" xmlns="http://www.w3.org/2000/svg"
 width="1024.000000pt" height="1024.000000pt" viewBox="0 0 1024.000000 1024.000000"
 preserveAspectRatio="xMidYMid meet">
<metadata>
Created by potrace 1.16, written by Peter Selinger 2001-2019
</metadata>
<g transform="translate(0.000000,1024.000000) scale(0.100000,-0.100000)"
fill="#0052FF" stroke="none">
<path d="M0 5120 l0 -5120 5120 0 5120 0 0 5120 0 5120 -5120 0 -5120 0 0
-5120z m4666 2969 c93 -67 211 -152 261 -188 51 -36 93 -69 93 -72 0 -3 -43
-37 -96 -75 -53 -38 -120 -86 -149 -108 l-54 -38 -265 193 c-146 106 -263 195
-260 198 13 13 290 210 295 211 4 0 82 -55 175 -121z m1242 11 c119 -85 142
-105 130 -115 -7 -7 -69 -53 -138 -102 -69 -49 -224 -161 -345 -248 -121 -87
-393 -283 -604 -434 -212 -152 -399 -290 -417 -308 -52 -52 -70 -117 -98 -366
-15 -125 -35 -255 -46 -290 -22 -70 -85 -175 -120 -200 l-22 -15 37 -38 c47
-47 101 -159 119 -249 8 -39 24 -153 36 -255 11 -101 25 -201 30 -221 23 -86
64 -125 310 -300 129 -92 235 -172 235 -178 0 -5 -66 -57 -147 -115 l-148
-106 -132 97 c-73 53 -163 119 -200 145 -145 106 -238 239 -272 388 -8 36 -24
148 -36 250 -27 235 -35 270 -71 319 -35 49 -73 70 -140 78 l-49 6 2 176 3
176 25 3 c70 7 93 16 126 44 67 59 72 76 114 427 40 328 101 430 375 623 66
46 203 145 305 218 102 73 262 188 355 255 94 67 271 195 395 284 124 88 230
159 235 157 6 -2 75 -50 153 -106z m-1918 -653 l0 -174 -112 -6 c-179 -11
-235 -51 -257 -185 -6 -37 -25 -210 -41 -384 -20 -199 -38 -343 -51 -390 -33
-119 -89 -200 -179 -258 l-50 -32 58 -38 c56 -38 101 -90 136 -158 36 -70 58
-196 91 -530 19 -189 40 -362 46 -385 6 -24 26 -57 47 -78 44 -44 103 -59 227
-59 l85 0 0 -174 c0 -96 -4 -177 -9 -180 -17 -11 -285 13 -341 30 -171 50
-290 166 -350 338 -21 61 -27 110 -65 522 -27 287 -41 363 -81 431 -40 69 -83
94 -186 108 l-48 6 0 168 0 168 52 7 c101 14 153 48 194 128 35 69 41 104 74
474 16 186 37 371 46 409 36 157 137 289 269 351 93 45 182 62 328 63 l117 1
0 -173z m2632 140 c143 -46 234 -124 294 -250 51 -109 61 -164 94 -532 34
-371 41 -418 75 -485 40 -78 93 -112 193 -126 l52 -7 0 -167 c0 -165 0 -168
-22 -174 -13 -3 -34 -6 -49 -6 -42 0 -125 -48 -152 -88 -54 -77 -61 -119 -102
-572 -14 -157 -32 -312 -40 -345 -24 -95 -82 -203 -141 -263 -99 -99 -236
-146 -456 -156 l-118 -6 0 179 0 179 118 4 c101 3 123 7 160 28 83 46 88 69
127 485 29 308 46 422 75 494 38 98 103 178 175 217 19 10 35 21 35 24 0 4
-15 13 -32 22 -92 44 -173 161 -202 289 -14 61 -38 271 -71 629 -18 184 -34
236 -88 269 -38 23 -136 41 -229 41 l-68 0 0 176 0 177 148 -5 c120 -5 161
-10 224 -31z m-898 -257 c222 -160 299 -236 352 -347 42 -88 56 -154 84 -393
26 -235 40 -282 94 -336 34 -34 51 -43 91 -49 28 -3 56 -8 63 -10 9 -3 12 -48
12 -180 l0 -175 -37 0 c-52 -1 -115 -31 -146 -71 -37 -49 -53 -121 -77 -334
-30 -272 -61 -373 -153 -493 -48 -63 -69 -79 -417 -329 -561 -402 -1026 -737
-1061 -764 l-35 -28 -140 100 c-76 55 -145 106 -152 112 -10 10 11 29 100 93
62 44 209 150 327 235 118 85 405 291 640 459 437 314 478 349 501 428 5 20
22 136 36 257 14 121 30 240 36 265 17 72 56 145 105 200 l45 50 -45 49 c-89
95 -109 160 -142 456 -14 127 -30 246 -37 265 -25 77 -60 110 -287 276 -294
214 -269 193 -251 204 8 5 74 52 145 104 72 53 135 96 142 96 7 0 100 -63 207
-140z m34 -3072 c130 -95 249 -182 265 -195 l28 -22 -73 -54 c-40 -30 -108
-79 -152 -110 l-79 -56 -36 28 c-20 16 -137 102 -261 192 -124 89 -227 165
-230 167 -3 2 6 12 20 21 13 9 81 58 150 108 69 51 126 93 128 93 2 0 110 -77
240 -172z m-2753 -1013 c195 -41 340 -177 411 -385 23 -68 26 -240 5 -315 -55
-199 -213 -355 -403 -400 -137 -32 -295 -14 -413 48 -77 40 -182 145 -222 222
-61 117 -83 286 -54 415 70 301 363 481 676 415z m1150 -8 c58 -16 146 -59
192 -94 l33 -25 -41 -57 c-22 -31 -47 -65 -55 -75 -13 -20 -14 -20 -36 0 -91
81 -268 120 -361 80 -69 -29 -100 -96 -73 -160 21 -49 58 -69 215 -112 231
-63 300 -103 348 -202 24 -49 28 -69 28 -142 -1 -101 -22 -156 -81 -214 -74
-72 -175 -106 -315 -106 -151 0 -319 60 -412 146 l-38 35 52 62 c29 34 56 66
60 71 4 5 27 -7 51 -26 62 -50 106 -74 167 -92 67 -20 190 -21 234 -2 72 30
102 100 74 168 -20 48 -79 78 -233 118 -198 51 -289 104 -337 195 -27 52 -29
190 -4 248 41 94 133 166 248 192 73 17 205 13 284 -8z m563 -29 c5 -18 47
-159 92 -313 45 -154 93 -315 105 -358 13 -43 25 -80 27 -83 2 -2 58 174 123
391 l118 395 91 0 91 0 104 -347 c123 -413 137 -453 144 -433 4 8 54 179 112
380 58 201 108 373 111 383 5 15 19 17 108 17 l103 0 -69 -222 c-39 -123 -116
-369 -172 -548 l-102 -325 -94 -3 -95 -2 -97 307 c-53 170 -107 343 -120 385
-21 70 -38 99 -38 65 0 -14 -149 -506 -201 -664 l-31 -93 -92 0 -92 0 -21 68
c-11 37 -86 276 -167 532 -81 256 -149 473 -152 483 -5 15 4 17 100 17 l105 0
9 -32z m2308 -55 l-1 -88 -172 -3 -173 -2 0 -460 0 -460 -95 0 -95 0 0 460 0
460 -172 2 -173 3 -3 88 -3 87 444 0 443 0 0 -87z m894 2 l0 -85 -262 -2 -263
-3 0 -145 0 -145 233 -3 232 -2 0 -85 0 -85 -232 -2 -233 -3 -3 -228 -2 -228
-98 3 -97 3 -3 548 -2 547 365 0 365 0 0 -85z"/>
<path d="M2763 3062 c-101 -36 -162 -95 -211 -200 -54 -119 -37 -295 41 -408
104 -151 328 -190 481 -85 187 129 210 442 47 609 -87 89 -243 125 -358 84z"/>
</g>
</svg>
