<?xml version="1.0" standalone="no"?>
<!DOCTYPE svg PUBLIC "-//W3C//DTD SVG 20010904//EN"
 "http://www.w3.org/TR/2001/REC-SVG-20010904/DTD/svg10.dtd">
<svg version="1.0" xmlns="http://www.w3.org/2000/svg"
 width="1024.000000pt" height="1024.000000pt" viewBox="0 0 1024.000000 1024.000000"
 preserveAspectRatio="xMidYMid meet">
<metadata>
Created by potrace 1.16, written by Peter Selinger 2001-2019
</metadata>
<g transform="translate(0.000000,1024.000000) scale(0.100000,-0.100000)"
fill="#000000" stroke="none">
<path d="M4343 8107 c-78 -56 -144 -105 -147 -108 -3 -3 114 -92 260 -198
l265 -193 54 38 c29 22 96 70 149 108 53 38 96 72 96 75 0 3 -42 36 -93 72
-50 36 -168 121 -261 188 -93 66 -171 121 -175 121 -3 0 -70 -47 -148 -103z"/>
<path d="M5520 8049 c-124 -89 -301 -217 -395 -284 -93 -67 -253 -182 -355
-255 -102 -73 -239 -172 -305 -218 -274 -193 -335 -295 -375 -623 -42 -351
-47 -368 -114 -427 -33 -28 -56 -37 -126 -44 l-25 -3 -3 -176 -2 -176 49 -6
c67 -8 105 -29 140 -78 36 -49 44 -84 71 -319 12 -102 28 -214 36 -250 34
-149 127 -282 272 -388 37 -26 127 -92 200 -145 l132 -97 148 106 c81 58 147
110 147 115 0 6 -106 86 -235 178 -246 175 -287 214 -310 300 -5 20 -19 120
-30 221 -12 102 -28 216 -36 255 -18 90 -72 202 -119 249 l-37 38 22 15 c35
25 98 130 120 200 11 35 31 165 46 290 28 249 46 314 98 366 18 18 205 156
417 308 211 151 483 347 604 434 121 87 276 199 345 248 69 49 131 95 138 102
12 10 -11 30 -130 115 -78 56 -147 104 -153 106 -5 2 -111 -69 -235 -157z"/>
<path d="M3686 7604 c-210 -41 -362 -190 -410 -399 -9 -38 -30 -223 -46 -409
-33 -370 -39 -405 -74 -474 -41 -80 -93 -114 -194 -128 l-52 -7 0 -168 0 -168
48 -6 c103 -14 146 -39 186 -108 40 -68 54 -144 81 -431 38 -412 44 -461 65
-522 60 -172 179 -288 350 -338 56 -17 324 -41 341 -30 5 3 9 84 9 180 l0 174
-85 0 c-124 0 -183 15 -227 59 -21 21 -41 54 -47 78 -6 23 -27 196 -46 385
-33 334 -55 460 -91 530 -35 68 -80 120 -136 158 l-58 38 50 32 c90 58 146
139 179 258 13 47 31 191 51 390 16 174 35 347 41 384 22 134 78 174 257 185
l112 6 0 174 0 173 -117 -1 c-65 0 -149 -7 -187 -15z"/>
<path d="M6250 7446 l0 -176 68 0 c93 0 191 -18 229 -41 54 -33 70 -85 88
-269 33 -358 57 -568 71 -629 29 -128 110 -245 202 -289 17 -9 32 -18 32 -22
0 -3 -16 -14 -35 -24 -72 -39 -137 -119 -175 -217 -29 -72 -46 -186 -75 -494
-39 -416 -44 -439 -127 -485 -37 -21 -59 -25 -160 -28 l-118 -4 0 -179 0 -179
118 6 c220 10 357 57 456 156 59 60 117 168 141 263 8 33 26 188 40 345 41
453 48 495 102 572 27 40 110 88 152 88 15 0 36 3 49 6 22 6 22 9 22 174 l0
167 -52 7 c-100 14 -153 48 -193 126 -34 67 -41 114 -75 485 -33 368 -43 423
-94 532 -60 126 -151 204 -294 250 -63 21 -104 26 -224 31 l-148 5 0 -177z"/>
<path d="M5375 7374 c-71 -52 -137 -99 -145 -104 -18 -11 -43 10 251 -204 227
-166 262 -199 287 -276 7 -19 23 -138 37 -265 33 -296 53 -361 142 -456 l45
-49 -45 -50 c-49 -55 -88 -128 -105 -200 -6 -25 -22 -144 -36 -265 -14 -121
-31 -237 -36 -257 -23 -79 -64 -114 -501 -428 -235 -168 -522 -374 -640 -459
-118 -85 -265 -191 -327 -235 -89 -64 -110 -83 -100 -93 7 -6 76 -57 152 -112
l140 -100 35 28 c35 27 500 362 1061 764 348 250 369 266 417 329 92 120 123
221 153 493 24 213 40 285 77 334 31 40 94 70 146 71 l37 0 0 175 c0 132 -3
177 -12 180 -7 2 -35 7 -63 10 -40 6 -57 15 -91 49 -54 54 -68 101 -94 336
-28 239 -42 305 -84 393 -53 111 -130 187 -352 347 -107 77 -200 140 -207 140
-7 0 -70 -43 -142 -96z"/>
<path d="M5390 4337 c-69 -50 -137 -99 -150 -108 -14 -9 -23 -19 -20 -21 3 -2
106 -78 230 -167 124 -90 241 -176 261 -192 l36 -28 79 56 c44 31 112 80 152
110 l73 54 -28 22 c-37 30 -501 367 -505 367 -2 0 -59 -42 -128 -93z"/>
<path d="M2744 3245 c-155 -34 -297 -144 -366 -285 -46 -96 -61 -164 -61 -270
1 -162 54 -291 163 -400 109 -109 234 -160 391 -160 221 1 404 106 497 288 54
107 67 160 67 282 0 164 -52 290 -165 401 -135 133 -330 187 -526 144z m280
-198 c70 -32 131 -96 169 -175 61 -130 45 -313 -37 -424 -111 -150 -325 -183
-482 -75 -203 140 -204 503 -1 644 99 69 240 81 351 30z"/>
<path d="M3871 3245 c-115 -26 -207 -98 -248 -192 -25 -58 -23 -196 4 -248 48
-91 139 -144 337 -195 154 -40 213 -70 233 -118 28 -68 -2 -138 -74 -168 -44
-19 -167 -18 -234 2 -61 18 -105 42 -167 92 -24 19 -47 31 -51 26 -4 -5 -31
-37 -60 -71 l-52 -62 38 -35 c93 -86 261 -146 412 -146 140 0 241 34 315 106
59 58 80 113 81 214 0 73 -4 93 -28 142 -48 99 -117 139 -348 202 -75 21 -151
46 -168 57 -62 38 -75 125 -27 178 76 85 295 63 414 -43 22 -20 23 -20 36 0 8
10 33 44 55 75 l41 57 -33 25 c-46 35 -134 78 -192 94 -79 21 -211 25 -284 8z"/>
<path d="M4504 3223 c3 -10 71 -227 152 -483 81 -256 156 -495 167 -532 l21
-68 92 0 92 0 31 93 c52 158 201 650 201 664 0 34 17 5 38 -65 13 -42 67 -215
120 -385 l97 -307 95 2 94 3 102 325 c56 179 133 425 172 548 l69 222 -103 0
c-89 0 -103 -2 -108 -17 -3 -10 -53 -182 -111 -383 -58 -201 -108 -372 -112
-380 -7 -20 -21 20 -144 433 l-104 347 -91 0 -91 0 -118 -395 c-65 -217 -121
-393 -123 -391 -2 3 -14 40 -27 83 -12 43 -60 204 -105 358 -45 154 -87 295
-92 313 l-9 32 -105 0 c-96 0 -105 -2 -100 -17z"/>
<path d="M6142 3153 l3 -88 173 -3 172 -2 0 -460 0 -460 95 0 95 0 0 460 0
460 173 2 172 3 1 88 0 87 -443 0 -444 0 3 -87z"/>
<path d="M7192 2693 l3 -548 97 -3 98 -3 2 228 3 228 233 3 232 2 0 85 0 85
-232 2 -233 3 0 145 0 145 263 3 262 2 0 85 0 85 -365 0 -365 0 2 -547z"/>
</g>
</svg>
